<svg width="40" height="40" fill="none" xmlns="http://www.w3.org/2000/svg"><rect width="40" height="40" rx="20" fill="#F1F3FE"/><path d="M26.832 20.502c0 1.525-.283 2.875-.849 4.05-.565 1.174-1.371 2.08-2.417 2.718-1.038.63-2.223.945-3.555.945-1.332 0-2.514-.305-3.545-.913-1.031-.616-1.837-1.493-2.417-2.632-.573-1.139-.874-2.446-.902-3.921v-.88c0-1.533.279-2.883.837-4.05.566-1.175 1.372-2.081 2.417-2.718 1.053-.638 2.25-.957 3.588-.957 1.325 0 2.507.316 3.545.946 1.039.63 1.844 1.529 2.417 2.696.58 1.16.874 2.492.881 3.996v.72zm-3.835-.655c0-1.554-.261-2.732-.784-3.535-.516-.809-1.257-1.213-2.224-1.213-1.89 0-2.89 1.418-2.997 4.253l-.01 1.15c0 1.533.254 2.71.762 3.534.509.824 1.264 1.235 2.267 1.235.952 0 1.686-.404 2.202-1.213.515-.81.777-1.973.784-3.492v-.72z" fill="#B4BEF0"/></svg>