<svg width="210" height="16" fill="none" xmlns="http://www.w3.org/2000/svg"><path d="M2.266 10.422H7.43V12H.29V.625h1.976v9.797zm10.218 1.734c-1.203 0-2.18-.377-2.93-1.133-.744-.76-1.117-1.77-1.117-3.03v-.235c0-.844.162-1.597.485-2.258a3.737 3.737 0 011.375-1.555 3.625 3.625 0 011.969-.554c1.15 0 2.039.367 2.664 1.101.63.735.945 1.774.945 3.117v.766h-5.523c.057.698.289 1.25.695 1.656.411.406.927.61 1.547.61.87 0 1.578-.352 2.125-1.055l1.023.976a3.442 3.442 0 01-1.36 1.18c-.562.276-1.194.414-1.898.414zm-.226-7.242c-.521 0-.943.182-1.266.547-.318.365-.52.872-.61 1.523H14v-.14c-.042-.636-.21-1.115-.508-1.438-.297-.328-.708-.492-1.234-.492zm7.476-3.422v2.055h1.493v1.406h-1.493v4.719c0 .323.063.557.188.703.13.14.36.21.687.21.22 0 .44-.025.664-.077v1.469c-.432.12-.849.18-1.25.18-1.458 0-2.187-.805-2.187-2.415V4.953h-1.39V3.547h1.39V1.492h1.898zM23.266 4l-.97-.602c.47-.682.712-1.403.727-2.164V0h1.665v1.078c0 .537-.139 1.078-.415 1.625-.27.542-.606.974-1.007 1.297zm6 5.703a.859.859 0 00-.422-.773c-.276-.177-.737-.334-1.383-.47-.646-.134-1.185-.306-1.617-.515-.948-.458-1.422-1.122-1.422-1.992 0-.729.307-1.338.922-1.828.614-.49 1.396-.734 2.343-.734 1.01 0 1.826.25 2.446.75.625.5.937 1.148.937 1.945h-1.898c0-.365-.136-.667-.406-.906-.271-.245-.63-.367-1.078-.367-.417 0-.758.096-1.024.289a.914.914 0 00-.39.773.77.77 0 00.367.68c.244.161.74.325 1.484.492.745.161 1.328.357 1.75.586.427.224.742.495.945.812.209.318.313.703.313 1.157 0 .76-.315 1.377-.945 1.851-.63.469-1.456.703-2.477.703-.693 0-1.31-.125-1.852-.375-.541-.25-.963-.594-1.265-1.031a2.441 2.441 0 01-.453-1.414h1.843c.026.448.196.794.508 1.039.313.24.727.36 1.242.36.5 0 .88-.094 1.141-.282a.893.893 0 00.39-.75zm13.64-.633c0-.5-.177-.885-.531-1.156-.349-.27-.982-.544-1.898-.82-.917-.276-1.646-.584-2.188-.922-1.036-.651-1.555-1.5-1.555-2.547 0-.917.373-1.672 1.118-2.266.75-.593 1.72-.89 2.914-.89.791 0 1.497.146 2.117.437.62.292 1.107.709 1.46 1.25.355.537.532 1.133.532 1.79h-1.969c0-.594-.187-1.058-.562-1.391-.37-.339-.901-.508-1.594-.508-.646 0-1.148.138-1.508.414-.354.276-.531.661-.531 1.156 0 .417.193.766.578 1.047.386.276 1.02.547 1.906.813.886.26 1.597.56 2.133.898.537.333.93.719 1.18 1.156.25.433.375.94.375 1.524 0 .948-.365 1.703-1.094 2.265-.724.558-1.708.836-2.953.836-.823 0-1.58-.15-2.273-.453-.688-.307-1.224-.729-1.61-1.265-.38-.537-.57-1.162-.57-1.876h1.976c0 .646.214 1.146.641 1.5.427.355 1.04.532 1.836.532.687 0 1.203-.138 1.547-.414.349-.282.523-.651.523-1.11zm10.93-1.21c0 1.307-.297 2.35-.89 3.132-.594.776-1.391 1.164-2.391 1.164-.927 0-1.67-.304-2.227-.914v4.008H46.43V3.547h1.75l.078.86c.557-.678 1.315-1.016 2.273-1.016 1.032 0 1.839.385 2.422 1.156.589.766.883 1.83.883 3.195v.117zm-1.89-.165c0-.843-.17-1.513-.508-2.008-.334-.494-.813-.742-1.438-.742-.776 0-1.333.32-1.672.961v3.75c.344.656.906.985 1.688.985.604 0 1.075-.243 1.414-.727.343-.49.515-1.23.515-2.219zm7.226 4.461c-1.203 0-2.18-.377-2.93-1.133-.745-.76-1.117-1.77-1.117-3.03v-.235c0-.844.161-1.597.484-2.258a3.737 3.737 0 011.375-1.555 3.625 3.625 0 011.97-.554c1.15 0 2.038.367 2.663 1.101.63.735.946 1.774.946 3.117v.766h-5.524c.057.698.29 1.25.695 1.656.412.406.927.61 1.547.61.87 0 1.578-.352 2.125-1.055l1.024.976a3.442 3.442 0 01-1.36 1.18c-.562.276-1.195.414-1.898.414zm-.227-7.242c-.52 0-.942.182-1.265.547-.318.365-.521.872-.61 1.523h3.617v-.14c-.041-.636-.21-1.115-.507-1.438-.297-.328-.709-.492-1.235-.492zM69.094 12c-.084-.162-.156-.425-.219-.79a2.955 2.955 0 01-2.219.946c-.849 0-1.541-.242-2.078-.726-.536-.485-.805-1.084-.805-1.797 0-.901.334-1.591 1-2.07.672-.485 1.63-.727 2.875-.727h1.165V6.28c0-.437-.123-.786-.368-1.047-.244-.265-.617-.398-1.117-.398-.432 0-.786.11-1.062.328a.993.993 0 00-.414.82h-1.899c0-.463.154-.895.461-1.296.307-.407.724-.724 1.25-.954a4.432 4.432 0 011.773-.343c.99 0 1.78.25 2.368.75.588.494.89 1.192.906 2.093v3.813c0 .76.107 1.367.32 1.82V12h-1.937zm-2.086-1.367c.375 0 .726-.091 1.055-.274.333-.182.583-.427.75-.734V8.031h-1.024c-.703 0-1.232.123-1.586.367-.354.245-.531.592-.531 1.04 0 .364.12.656.36.874.244.214.57.32.976.32zm8.437-2.258l-.843.867V12h-1.899V0h1.899v6.922l.593-.742 2.336-2.633h2.281l-3.14 3.523L80.148 12h-2.195l-2.508-3.625zm5.883 6.188l-1.023-.61c.302-.474.507-.888.617-1.242.115-.349.174-.706.18-1.07v-1.477h1.71l-.007 1.367a3.755 3.755 0 01-.422 1.656 4.07 4.07 0 01-1.055 1.376zm13.64-11.016V12h-.937V8.594h-2.625L89.344 12h-1.031l2.124-3.523c-.578-.151-1.028-.443-1.351-.875-.318-.433-.477-.943-.477-1.532 0-.765.274-1.377.82-1.836.553-.458 1.298-.687 2.235-.687h3.305zm-5.421 2.539c0 .495.156.901.469 1.219.317.317.757.481 1.32.492h2.695V4.344h-2.39c-.651 0-1.164.156-1.54.468-.37.313-.554.737-.554 1.274zm12.898-.305c0-.51-.19-.903-.57-1.18-.38-.275-.904-.413-1.57-.413-.605 0-1.123.156-1.555.468-.427.308-.64.698-.64 1.172h-.93c0-.703.3-1.284.898-1.742.604-.458 1.346-.688 2.227-.688.968 0 1.724.209 2.265.625.542.417.813 1.008.813 1.774 0 .406-.125.773-.375 1.101-.25.329-.615.584-1.094.766 1.083.297 1.625.969 1.625 2.016 0 .76-.294 1.362-.883 1.804-.588.443-1.37.664-2.344.664-.942 0-1.724-.236-2.343-.71-.62-.475-.93-1.094-.93-1.86h.938c0 .51.224.938.671 1.281.454.339 1.008.508 1.664.508.714 0 1.271-.148 1.672-.445.407-.302.61-.711.61-1.227 0-.567-.185-.976-.555-1.226-.37-.25-.935-.375-1.695-.375h-1.29V7.28h1.446c1.297-.031 1.945-.531 1.945-1.5zm4.188.836h2.437c.625 0 1.172.115 1.641.344.474.224.831.536 1.07.937.245.401.367.868.367 1.399 0 .818-.281 1.474-.843 1.969-.558.49-1.313.734-2.266.734h-3.336V3.547h.93v3.07zm0 .797v3.797h2.422c.672 0 1.198-.17 1.578-.508.385-.338.578-.802.578-1.39 0-.563-.188-1.016-.563-1.36-.369-.349-.877-.529-1.523-.539h-2.492zM115.016 12h-.938V3.547h.938V12zm4.898-3.875h-1.297V12h-.945V3.547h.945v3.75h1.281L123 3.547h1.18l-3.469 4.101L124.562 12h-1.234l-3.414-3.875zm5.313-.477c0-.812.156-1.544.468-2.195.318-.65.763-1.156 1.336-1.516a3.6 3.6 0 011.961-.546c1.125 0 2.037.395 2.735 1.187.697.787 1.046 1.83 1.046 3.133v.195c0 .818-.158 1.555-.476 2.211-.313.651-.755 1.154-1.328 1.508-.573.354-1.227.531-1.961.531-1.12 0-2.031-.393-2.735-1.18-.697-.791-1.046-1.838-1.046-3.14v-.188zm.937.258c0 1.01.26 1.841.781 2.492.526.646 1.214.97 2.063.97.844 0 1.526-.324 2.047-.97.526-.65.789-1.507.789-2.57v-.18c0-.645-.12-1.237-.36-1.773-.239-.536-.575-.95-1.007-1.242a2.563 2.563 0 00-1.485-.446c-.833 0-1.513.329-2.039.985-.526.65-.789 1.505-.789 2.562v.172zM134.812 12V3.547h3.102c1.073 0 1.896.193 2.469.578.573.38.859.94.859 1.68 0 .422-.127.8-.383 1.133-.255.328-.627.567-1.117.718.552.104.995.341 1.328.711.339.37.508.8.508 1.29 0 .744-.276 1.322-.828 1.734-.547.406-1.323.609-2.328.609h-3.61zm.93-3.89v3.109h2.711c.703 0 1.245-.136 1.625-.406.38-.271.57-.662.57-1.172 0-.47-.19-.842-.57-1.118-.38-.276-.922-.414-1.625-.414h-2.711zm0-.782h2.367c1.469-.02 2.203-.52 2.203-1.5 0-.516-.203-.89-.609-1.125-.401-.24-.997-.36-1.789-.36h-2.172v2.985zM149 12c-.094-.266-.154-.659-.18-1.18a3.283 3.283 0 01-1.258.992 3.847 3.847 0 01-1.609.344c-.812 0-1.471-.226-1.976-.68-.5-.453-.75-1.026-.75-1.718 0-.823.341-1.474 1.023-1.953.688-.48 1.643-.72 2.867-.72h1.695v-.96c0-.604-.187-1.078-.562-1.422-.37-.349-.911-.523-1.625-.523-.651 0-1.19.166-1.617.5-.427.333-.641.734-.641 1.203l-.937-.008c0-.672.312-1.253.937-1.742.625-.495 1.393-.742 2.305-.742.943 0 1.685.237 2.226.71.547.47.829 1.126.844 1.97v4c0 .817.086 1.429.258 1.835V12h-1zm-2.938-.672c.626 0 1.183-.15 1.672-.453a2.653 2.653 0 001.078-1.21v-1.86h-1.671c-.933.01-1.662.182-2.188.515-.526.328-.789.782-.789 1.36 0 .474.175.867.524 1.18.354.312.812.468 1.374.468zm12.344-7.781V12h-.937V8.594h-2.625L152.781 12h-1.031l2.125-3.523c-.578-.151-1.029-.443-1.352-.875-.317-.433-.476-.943-.476-1.532 0-.765.273-1.377.82-1.836.552-.458 1.297-.687 2.235-.687h3.304zm-5.422 2.539c0 .495.157.901.469 1.219.318.317.758.481 1.32.492h2.696V4.344h-2.391c-.651 0-1.164.156-1.539.468-.37.313-.555.737-.555 1.274zm12.836-2.54v7.665h3.758V3.547h.938v7.664h3.726V3.547h.938V12h-10.297V3.547h.937zm14 4.579h-1.297V12h-.945V3.547h.945v3.75h1.282l3.101-3.75h1.18l-3.469 4.101L184.469 12h-1.235l-3.414-3.875zm5.313-.477c0-.812.156-1.544.469-2.195a3.606 3.606 0 011.336-1.516 3.596 3.596 0 011.96-.546c1.125 0 2.037.395 2.735 1.187.698.787 1.047 1.83 1.047 3.133v.195c0 .818-.159 1.555-.477 2.211-.312.651-.755 1.154-1.328 1.508-.573.354-1.227.531-1.961.531-1.12 0-2.031-.393-2.734-1.18-.698-.791-1.047-1.838-1.047-3.14v-.188zm.937.258c0 1.01.261 1.841.782 2.492.526.646 1.213.97 2.062.97.844 0 1.526-.324 2.047-.97.526-.65.789-1.507.789-2.57v-.18a4.31 4.31 0 00-.359-1.773c-.24-.536-.576-.95-1.008-1.242a2.559 2.559 0 00-1.485-.446c-.833 0-1.513.329-2.039.985-.526.65-.789 1.505-.789 2.562v.172zm14.922-4.36V12h-.937V4.352h-3.461l-.149 3.164c-.062 1.171-.179 2.067-.351 2.687-.172.615-.427 1.068-.766 1.36-.338.291-.789.437-1.351.437h-.36v-.828l.289-.016c.537-.01.922-.27 1.156-.781.235-.51.389-1.422.461-2.734l.172-4.094h5.297zM208.844 12c-.094-.266-.154-.659-.18-1.18a3.283 3.283 0 01-1.258.992 3.847 3.847 0 01-1.609.344c-.813 0-1.471-.226-1.977-.68-.5-.453-.75-1.026-.75-1.718 0-.823.341-1.474 1.024-1.953.687-.48 1.643-.72 2.867-.72h1.695v-.96c0-.604-.187-1.078-.562-1.422-.37-.349-.912-.523-1.625-.523-.651 0-1.19.166-1.617.5-.428.333-.641.734-.641 1.203l-.938-.008c0-.672.313-1.253.938-1.742.625-.495 1.393-.742 2.305-.742.942 0 1.685.237 2.226.71.547.47.828 1.126.844 1.97v4c0 .817.086 1.429.258 1.835V12h-1zm-2.938-.672c.625 0 1.183-.15 1.672-.453a2.659 2.659 0 001.078-1.21v-1.86h-1.672c-.932.01-1.661.182-2.187.515-.526.328-.789.782-.789 1.36 0 .474.174.867.523 1.18.354.312.813.468 1.375.468z" fill="#fff"/></svg>