<svg width="210" height="16" viewBox="0 0 210 16" fill="none" xmlns="http://www.w3.org/2000/svg">
<path d="M2.26562 10.4219H7.42969V12H0.289062V0.625H2.26562V10.4219ZM12.4844 12.1562C11.2812 12.1562 10.3047 11.7786 9.55469 11.0234C8.8099 10.263 8.4375 9.2526 8.4375 7.99219V7.75781C8.4375 6.91406 8.59896 6.16146 8.92188 5.5C9.25 4.83333 9.70833 4.3151 10.2969 3.94531C10.8854 3.57552 11.5417 3.39062 12.2656 3.39062C13.4167 3.39062 14.3047 3.75781 14.9297 4.49219C15.5599 5.22656 15.875 6.26562 15.875 7.60938V8.375H10.3516C10.4089 9.07292 10.6406 9.625 11.0469 10.0312C11.4583 10.4375 11.974 10.6406 12.5938 10.6406C13.4635 10.6406 14.1719 10.2891 14.7188 9.58594L15.7422 10.5625C15.4036 11.0677 14.9505 11.4609 14.3828 11.7422C13.8203 12.0182 13.1875 12.1562 12.4844 12.1562ZM12.2578 4.91406C11.737 4.91406 11.3151 5.09635 10.9922 5.46094C10.6745 5.82552 10.4714 6.33333 10.3828 6.98438H14V6.84375C13.9583 6.20833 13.7891 5.72917 13.4922 5.40625C13.1953 5.07812 12.7839 4.91406 12.2578 4.91406ZM19.7344 1.49219V3.54688H21.2266V4.95312H19.7344V9.67188C19.7344 9.99479 19.7969 10.2292 19.9219 10.375C20.0521 10.5156 20.2812 10.5859 20.6094 10.5859C20.8281 10.5859 21.0495 10.5599 21.2734 10.5078V11.9766C20.8411 12.0964 20.4245 12.1562 20.0234 12.1562C18.5651 12.1562 17.8359 11.3516 17.8359 9.74219V4.95312H16.4453V3.54688H17.8359V1.49219H19.7344ZM23.2656 4L22.2969 3.39844C22.7656 2.71615 23.0078 1.99479 23.0234 1.23438V0H24.6875V1.07812C24.6875 1.61458 24.5495 2.15625 24.2734 2.70312C24.0026 3.24479 23.6667 3.67708 23.2656 4ZM29.2656 9.70312C29.2656 9.36458 29.125 9.10677 28.8438 8.92969C28.5677 8.7526 28.1068 8.59635 27.4609 8.46094C26.8151 8.32552 26.276 8.15365 25.8438 7.94531C24.8958 7.48698 24.4219 6.82292 24.4219 5.95312C24.4219 5.22396 24.7292 4.61458 25.3438 4.125C25.9583 3.63542 26.7396 3.39062 27.6875 3.39062C28.6979 3.39062 29.513 3.64062 30.1328 4.14062C30.7578 4.64062 31.0703 5.28906 31.0703 6.08594H29.1719C29.1719 5.72135 29.0365 5.41927 28.7656 5.17969C28.4948 4.9349 28.1354 4.8125 27.6875 4.8125C27.2708 4.8125 26.9297 4.90885 26.6641 5.10156C26.4036 5.29427 26.2734 5.55208 26.2734 5.875C26.2734 6.16667 26.3958 6.39323 26.6406 6.55469C26.8854 6.71615 27.3802 6.88021 28.125 7.04688C28.8698 7.20833 29.4531 7.40365 29.875 7.63281C30.3021 7.85677 30.6172 8.1276 30.8203 8.44531C31.0286 8.76302 31.1328 9.14844 31.1328 9.60156C31.1328 10.362 30.8177 10.9792 30.1875 11.4531C29.5573 11.9219 28.7318 12.1562 27.7109 12.1562C27.0182 12.1562 26.401 12.0312 25.8594 11.7812C25.3177 11.5312 24.8958 11.1875 24.5938 10.75C24.2917 10.3125 24.1406 9.84115 24.1406 9.33594H25.9844C26.0104 9.78385 26.1797 10.1302 26.4922 10.375C26.8047 10.6146 27.2188 10.7344 27.7344 10.7344C28.2344 10.7344 28.6146 10.6406 28.875 10.4531C29.1354 10.2604 29.2656 10.0104 29.2656 9.70312ZM42.9062 9.07031C42.9062 8.57031 42.7292 8.1849 42.375 7.91406C42.026 7.64323 41.3932 7.36979 40.4766 7.09375C39.5599 6.81771 38.8307 6.51042 38.2891 6.17188C37.2526 5.52083 36.7344 4.67188 36.7344 3.625C36.7344 2.70833 37.1068 1.95312 37.8516 1.35938C38.6016 0.765625 39.5729 0.46875 40.7656 0.46875C41.5573 0.46875 42.263 0.614583 42.8828 0.90625C43.5026 1.19792 43.9896 1.61458 44.3438 2.15625C44.6979 2.69271 44.875 3.28906 44.875 3.94531H42.9062C42.9062 3.35156 42.7188 2.88802 42.3438 2.55469C41.974 2.21615 41.4427 2.04688 40.75 2.04688C40.1042 2.04688 39.6016 2.1849 39.2422 2.46094C38.888 2.73698 38.7109 3.1224 38.7109 3.61719C38.7109 4.03385 38.9036 4.38281 39.2891 4.66406C39.6745 4.9401 40.3099 5.21094 41.1953 5.47656C42.0807 5.73698 42.7917 6.03646 43.3281 6.375C43.8646 6.70833 44.2578 7.09375 44.5078 7.53125C44.7578 7.96354 44.8828 8.47135 44.8828 9.05469C44.8828 10.0026 44.5182 10.7578 43.7891 11.3203C43.0651 11.8776 42.0807 12.1562 40.8359 12.1562C40.013 12.1562 39.2552 12.0052 38.5625 11.7031C37.875 11.3958 37.3385 10.974 36.9531 10.4375C36.5729 9.90104 36.3828 9.27604 36.3828 8.5625H38.3594C38.3594 9.20833 38.5729 9.70833 39 10.0625C39.4271 10.4167 40.0391 10.5938 40.8359 10.5938C41.5234 10.5938 42.0391 10.4557 42.3828 10.1797C42.7318 9.89844 42.9062 9.52865 42.9062 9.07031ZM53.8359 7.85938C53.8359 9.16667 53.5391 10.2109 52.9453 10.9922C52.3516 11.7682 51.5547 12.1562 50.5547 12.1562C49.6276 12.1562 48.8854 11.8516 48.3281 11.2422V15.25H46.4297V3.54688H48.1797L48.2578 4.40625C48.8151 3.72917 49.5729 3.39062 50.5312 3.39062C51.5625 3.39062 52.3698 3.77604 52.9531 4.54688C53.5417 5.3125 53.8359 6.3776 53.8359 7.74219V7.85938ZM51.9453 7.69531C51.9453 6.85156 51.776 6.18229 51.4375 5.6875C51.1042 5.19271 50.625 4.94531 50 4.94531C49.224 4.94531 48.6667 5.26562 48.3281 5.90625V9.65625C48.6719 10.3125 49.2344 10.6406 50.0156 10.6406C50.6198 10.6406 51.0911 10.3984 51.4297 9.91406C51.7734 9.42448 51.9453 8.6849 51.9453 7.69531ZM59.1719 12.1562C57.9688 12.1562 56.9922 11.7786 56.2422 11.0234C55.4974 10.263 55.125 9.2526 55.125 7.99219V7.75781C55.125 6.91406 55.2865 6.16146 55.6094 5.5C55.9375 4.83333 56.3958 4.3151 56.9844 3.94531C57.5729 3.57552 58.2292 3.39062 58.9531 3.39062C60.1042 3.39062 60.9922 3.75781 61.6172 4.49219C62.2474 5.22656 62.5625 6.26562 62.5625 7.60938V8.375H57.0391C57.0964 9.07292 57.3281 9.625 57.7344 10.0312C58.1458 10.4375 58.6615 10.6406 59.2812 10.6406C60.151 10.6406 60.8594 10.2891 61.4062 9.58594L62.4297 10.5625C62.0911 11.0677 61.638 11.4609 61.0703 11.7422C60.5078 12.0182 59.875 12.1562 59.1719 12.1562ZM58.9453 4.91406C58.4245 4.91406 58.0026 5.09635 57.6797 5.46094C57.362 5.82552 57.1589 6.33333 57.0703 6.98438H60.6875V6.84375C60.6458 6.20833 60.4766 5.72917 60.1797 5.40625C59.8828 5.07812 59.4714 4.91406 58.9453 4.91406ZM69.0938 12C69.0104 11.8385 68.9375 11.5755 68.875 11.2109C68.2708 11.8411 67.5312 12.1562 66.6562 12.1562C65.8073 12.1562 65.1146 11.9141 64.5781 11.4297C64.0417 10.9453 63.7734 10.3464 63.7734 9.63281C63.7734 8.73177 64.1068 8.04167 64.7734 7.5625C65.4453 7.07812 66.4036 6.83594 67.6484 6.83594H68.8125V6.28125C68.8125 5.84375 68.6901 5.49479 68.4453 5.23438C68.2005 4.96875 67.8281 4.83594 67.3281 4.83594C66.8958 4.83594 66.5417 4.94531 66.2656 5.16406C65.9896 5.3776 65.8516 5.65104 65.8516 5.98438H63.9531C63.9531 5.52083 64.1068 5.08854 64.4141 4.6875C64.7214 4.28125 65.138 3.96354 65.6641 3.73438C66.1953 3.50521 66.7865 3.39062 67.4375 3.39062C68.4271 3.39062 69.2161 3.64062 69.8047 4.14062C70.3932 4.63542 70.6953 5.33333 70.7109 6.23438V10.0469C70.7109 10.8073 70.8177 11.4141 71.0312 11.8672V12H69.0938ZM67.0078 10.6328C67.3828 10.6328 67.7344 10.5417 68.0625 10.3594C68.3958 10.1771 68.6458 9.93229 68.8125 9.625V8.03125H67.7891C67.0859 8.03125 66.5573 8.15365 66.2031 8.39844C65.849 8.64323 65.6719 8.98958 65.6719 9.4375C65.6719 9.80208 65.7917 10.0938 66.0312 10.3125C66.276 10.526 66.6016 10.6328 67.0078 10.6328ZM75.4453 8.375L74.6016 9.24219V12H72.7031V0H74.6016V6.92188L75.1953 6.17969L77.5312 3.54688H79.8125L76.6719 7.07031L80.1484 12H77.9531L75.4453 8.375ZM81.3281 14.5625L80.3047 13.9531C80.6068 13.4792 80.8125 13.0651 80.9219 12.7109C81.0365 12.362 81.0964 12.0052 81.1016 11.6406V10.1641H82.8125L82.8047 11.5312C82.7995 12.0833 82.6589 12.6354 82.3828 13.1875C82.112 13.7448 81.7604 14.2031 81.3281 14.5625ZM94.9688 3.54688V12H94.0312V8.59375H91.4062L89.3438 12H88.3125L90.4375 8.47656C89.8594 8.32552 89.4089 8.03385 89.0859 7.60156C88.7682 7.16927 88.6094 6.65885 88.6094 6.07031C88.6094 5.30469 88.8828 4.69271 89.4297 4.23438C89.9818 3.77604 90.7266 3.54688 91.6641 3.54688H94.9688ZM89.5469 6.08594C89.5469 6.58073 89.7031 6.98698 90.0156 7.30469C90.3333 7.6224 90.7734 7.78646 91.3359 7.79688H94.0312V4.34375H91.6406C90.9896 4.34375 90.4766 4.5 90.1016 4.8125C89.7318 5.125 89.5469 5.54948 89.5469 6.08594ZM102.445 5.78125C102.445 5.27083 102.255 4.8776 101.875 4.60156C101.495 4.32552 100.971 4.1875 100.305 4.1875C99.7005 4.1875 99.1823 4.34375 98.75 4.65625C98.3229 4.96354 98.1094 5.35417 98.1094 5.82812H97.1797C97.1797 5.125 97.4792 4.54427 98.0781 4.08594C98.6823 3.6276 99.4245 3.39844 100.305 3.39844C101.273 3.39844 102.029 3.60677 102.57 4.02344C103.112 4.4401 103.383 5.03125 103.383 5.79688C103.383 6.20312 103.258 6.57031 103.008 6.89844C102.758 7.22656 102.393 7.48177 101.914 7.66406C102.997 7.96094 103.539 8.63281 103.539 9.67969C103.539 10.4401 103.245 11.0417 102.656 11.4844C102.068 11.9271 101.286 12.1484 100.312 12.1484C99.3698 12.1484 98.5885 11.9115 97.9688 11.4375C97.349 10.9635 97.0391 10.3438 97.0391 9.57812H97.9766C97.9766 10.0885 98.2005 10.5156 98.6484 10.8594C99.1016 11.1979 99.6562 11.3672 100.312 11.3672C101.026 11.3672 101.583 11.2188 101.984 10.9219C102.391 10.6198 102.594 10.2109 102.594 9.69531C102.594 9.1276 102.409 8.71875 102.039 8.46875C101.669 8.21875 101.104 8.09375 100.344 8.09375H99.0547V7.28125H100.5C101.797 7.25 102.445 6.75 102.445 5.78125ZM106.633 6.61719H109.07C109.695 6.61719 110.242 6.73177 110.711 6.96094C111.185 7.1849 111.542 7.4974 111.781 7.89844C112.026 8.29948 112.148 8.76562 112.148 9.29688C112.148 10.1146 111.867 10.7708 111.305 11.2656C110.747 11.7552 109.992 12 109.039 12H105.703V3.54688H106.633V6.61719ZM106.633 7.41406V11.2109H109.055C109.727 11.2109 110.253 11.0417 110.633 10.7031C111.018 10.3646 111.211 9.90104 111.211 9.3125C111.211 8.75 111.023 8.29688 110.648 7.95312C110.279 7.60417 109.771 7.42448 109.125 7.41406H106.633ZM115.016 12H114.078V3.54688H115.016V12ZM119.914 8.125H118.617V12H117.672V3.54688H118.617V7.29688H119.898L123 3.54688H124.18L120.711 7.64844L124.562 12H123.328L119.914 8.125ZM125.227 7.64844C125.227 6.83594 125.383 6.10417 125.695 5.45312C126.013 4.80208 126.458 4.29688 127.031 3.9375C127.609 3.57292 128.263 3.39062 128.992 3.39062C130.117 3.39062 131.029 3.78646 131.727 4.57812C132.424 5.36458 132.773 6.40885 132.773 7.71094V7.90625C132.773 8.72396 132.615 9.46094 132.297 10.1172C131.984 10.7682 131.542 11.2708 130.969 11.625C130.396 11.9792 129.742 12.1562 129.008 12.1562C127.888 12.1562 126.977 11.763 126.273 10.9766C125.576 10.1849 125.227 9.13802 125.227 7.83594V7.64844ZM126.164 7.90625C126.164 8.91667 126.424 9.7474 126.945 10.3984C127.471 11.0443 128.159 11.3672 129.008 11.3672C129.852 11.3672 130.534 11.0443 131.055 10.3984C131.581 9.7474 131.844 8.89062 131.844 7.82812V7.64844C131.844 7.0026 131.724 6.41146 131.484 5.875C131.245 5.33854 130.909 4.92448 130.477 4.63281C130.044 4.33594 129.549 4.1875 128.992 4.1875C128.159 4.1875 127.479 4.51562 126.953 5.17188C126.427 5.82292 126.164 6.67708 126.164 7.73438V7.90625ZM134.812 12V3.54688H137.914C138.987 3.54688 139.81 3.73958 140.383 4.125C140.956 4.50521 141.242 5.0651 141.242 5.80469C141.242 6.22656 141.115 6.60417 140.859 6.9375C140.604 7.26562 140.232 7.50521 139.742 7.65625C140.294 7.76042 140.737 7.9974 141.07 8.36719C141.409 8.73698 141.578 9.16667 141.578 9.65625C141.578 10.401 141.302 10.9792 140.75 11.3906C140.203 11.7969 139.427 12 138.422 12H134.812ZM135.742 8.10938V11.2188H138.453C139.156 11.2188 139.698 11.0833 140.078 10.8125C140.458 10.5417 140.648 10.151 140.648 9.64062C140.648 9.17188 140.458 8.79948 140.078 8.52344C139.698 8.2474 139.156 8.10938 138.453 8.10938H135.742ZM135.742 7.32812H138.109C139.578 7.30729 140.312 6.80729 140.312 5.82812C140.312 5.3125 140.109 4.9375 139.703 4.70312C139.302 4.46354 138.706 4.34375 137.914 4.34375H135.742V7.32812ZM149 12C148.906 11.7344 148.846 11.3411 148.82 10.8203C148.492 11.2474 148.073 11.5781 147.562 11.8125C147.057 12.0417 146.521 12.1562 145.953 12.1562C145.141 12.1562 144.482 11.9297 143.977 11.4766C143.477 11.0234 143.227 10.4505 143.227 9.75781C143.227 8.9349 143.568 8.28385 144.25 7.80469C144.938 7.32552 145.893 7.08594 147.117 7.08594H148.812V6.125C148.812 5.52083 148.625 5.04688 148.25 4.70312C147.88 4.35417 147.339 4.17969 146.625 4.17969C145.974 4.17969 145.435 4.34635 145.008 4.67969C144.581 5.01302 144.367 5.41406 144.367 5.88281L143.43 5.875C143.43 5.20312 143.742 4.6224 144.367 4.13281C144.992 3.63802 145.76 3.39062 146.672 3.39062C147.615 3.39062 148.357 3.6276 148.898 4.10156C149.445 4.57031 149.727 5.22656 149.742 6.07031V10.0703C149.742 10.888 149.828 11.5 150 11.9062V12H149ZM146.062 11.3281C146.688 11.3281 147.245 11.1771 147.734 10.875C148.229 10.5729 148.589 10.1693 148.812 9.66406V7.80469H147.141C146.208 7.8151 145.479 7.98698 144.953 8.32031C144.427 8.64844 144.164 9.10156 144.164 9.67969C144.164 10.1536 144.339 10.5469 144.688 10.8594C145.042 11.1719 145.5 11.3281 146.062 11.3281ZM158.406 3.54688V12H157.469V8.59375H154.844L152.781 12H151.75L153.875 8.47656C153.297 8.32552 152.846 8.03385 152.523 7.60156C152.206 7.16927 152.047 6.65885 152.047 6.07031C152.047 5.30469 152.32 4.69271 152.867 4.23438C153.419 3.77604 154.164 3.54688 155.102 3.54688H158.406ZM152.984 6.08594C152.984 6.58073 153.141 6.98698 153.453 7.30469C153.771 7.6224 154.211 7.78646 154.773 7.79688H157.469V4.34375H155.078C154.427 4.34375 153.914 4.5 153.539 4.8125C153.169 5.125 152.984 5.54948 152.984 6.08594ZM165.82 3.54688V11.2109H169.578V3.54688H170.516V11.2109H174.242V3.54688H175.18V12H164.883V3.54688H165.82ZM179.82 8.125H178.523V12H177.578V3.54688H178.523V7.29688H179.805L182.906 3.54688H184.086L180.617 7.64844L184.469 12H183.234L179.82 8.125ZM185.133 7.64844C185.133 6.83594 185.289 6.10417 185.602 5.45312C185.919 4.80208 186.365 4.29688 186.938 3.9375C187.516 3.57292 188.169 3.39062 188.898 3.39062C190.023 3.39062 190.935 3.78646 191.633 4.57812C192.331 5.36458 192.68 6.40885 192.68 7.71094V7.90625C192.68 8.72396 192.521 9.46094 192.203 10.1172C191.891 10.7682 191.448 11.2708 190.875 11.625C190.302 11.9792 189.648 12.1562 188.914 12.1562C187.794 12.1562 186.883 11.763 186.18 10.9766C185.482 10.1849 185.133 9.13802 185.133 7.83594V7.64844ZM186.07 7.90625C186.07 8.91667 186.331 9.7474 186.852 10.3984C187.378 11.0443 188.065 11.3672 188.914 11.3672C189.758 11.3672 190.44 11.0443 190.961 10.3984C191.487 9.7474 191.75 8.89062 191.75 7.82812V7.64844C191.75 7.0026 191.63 6.41146 191.391 5.875C191.151 5.33854 190.815 4.92448 190.383 4.63281C189.951 4.33594 189.456 4.1875 188.898 4.1875C188.065 4.1875 187.385 4.51562 186.859 5.17188C186.333 5.82292 186.07 6.67708 186.07 7.73438V7.90625ZM200.992 3.54688V12H200.055V4.35156H196.594L196.445 7.51562C196.383 8.6875 196.266 9.58333 196.094 10.2031C195.922 10.8177 195.667 11.2708 195.328 11.5625C194.99 11.8542 194.539 12 193.977 12H193.617V11.1719L193.906 11.1562C194.443 11.1458 194.828 10.8854 195.062 10.375C195.297 9.86458 195.451 8.95312 195.523 7.64062L195.695 3.54688H200.992ZM208.844 12C208.75 11.7344 208.69 11.3411 208.664 10.8203C208.336 11.2474 207.917 11.5781 207.406 11.8125C206.901 12.0417 206.365 12.1562 205.797 12.1562C204.984 12.1562 204.326 11.9297 203.82 11.4766C203.32 11.0234 203.07 10.4505 203.07 9.75781C203.07 8.9349 203.411 8.28385 204.094 7.80469C204.781 7.32552 205.737 7.08594 206.961 7.08594H208.656V6.125C208.656 5.52083 208.469 5.04688 208.094 4.70312C207.724 4.35417 207.182 4.17969 206.469 4.17969C205.818 4.17969 205.279 4.34635 204.852 4.67969C204.424 5.01302 204.211 5.41406 204.211 5.88281L203.273 5.875C203.273 5.20312 203.586 4.6224 204.211 4.13281C204.836 3.63802 205.604 3.39062 206.516 3.39062C207.458 3.39062 208.201 3.6276 208.742 4.10156C209.289 4.57031 209.57 5.22656 209.586 6.07031V10.0703C209.586 10.888 209.672 11.5 209.844 11.9062V12H208.844ZM205.906 11.3281C206.531 11.3281 207.089 11.1771 207.578 10.875C208.073 10.5729 208.432 10.1693 208.656 9.66406V7.80469H206.984C206.052 7.8151 205.323 7.98698 204.797 8.32031C204.271 8.64844 204.008 9.10156 204.008 9.67969C204.008 10.1536 204.182 10.5469 204.531 10.8594C204.885 11.1719 205.344 11.3281 205.906 11.3281Z" fill="white"/>
</svg>
